HIERARCHY
ROOT Hips
{
	OFFSET 0.000000 0.000000 0.000000
	CHANNELS 6 Xposition Yposition Zposition Xrotation Yrotation Zrotation
	JOINT LeftUpLeg_virtual
	{
		OFFSET 0.000000 0.000000 0.000000
		CHANNELS 3 Xrotation Yrotation Zrotation
		JOINT LeftUpLeg
		{
			OFFSET 10.205400 -3.823500 0.155100
			CHANNELS 3 Xrotation Yrotation Zrotation
			JOINT LeftLeg
			{
				OFFSET 0.708757 -12.982077 0.567790
				CHANNELS 3 Xrotation Yrotation Zrotation
				JOINT LeftFoot
				{
					OFFSET -0.708756 -10.717838 -2.184338
					CHANNELS 3 Xrotation Yrotation Zrotation
					JOINT LeftToeBase
					{
						OFFSET 0.108149 -7.191104 7.560241
						CHANNELS 3 Xrotation Yrotation Zrotation
						JOINT LeftToe_End
						{
							OFFSET 0.070230 0.081724 4.490308
							CHANNELS 3 Xrotation Yrotation Zrotation
							End Site
							{
								OFFSET 0 0 0
							}
						}
					}
				}
			}
		}
	}
	JOINT RightUpLeg_virtual
	{
		OFFSET 0.000000 0.000000 0.000000
		CHANNELS 3 Xrotation Yrotation Zrotation
		JOINT RightUpLeg
		{
			OFFSET -10.205400 -3.823500 0.005500
			CHANNELS 3 Xrotation Yrotation Zrotation
			JOINT RightLeg
			{
				OFFSET -0.708756 -12.982134 0.610632
				CHANNELS 3 Xrotation Yrotation Zrotation
				JOINT RightFoot
				{
					OFFSET 0.708754 -10.717769 -1.945823
					CHANNELS 3 Xrotation Yrotation Zrotation
					JOINT RightToeBase
					{
						OFFSET -0.108140 -7.191069 7.372968
						CHANNELS 3 Xrotation Yrotation Zrotation
						JOINT RightToe_End
						{
							OFFSET -0.070227 0.081735 4.479403
							CHANNELS 3 Xrotation Yrotation Zrotation
							End Site
							{
								OFFSET 0 0 0
							}
						}
					}
				}
			}
		}
	}
	JOINT Spine_virtual
	{
		OFFSET 0.000000 0.000000 0.000000
		CHANNELS 3 Xrotation Yrotation Zrotation
		JOINT Spine
		{
			OFFSET 0.000000 6.876099 0.125700
			CHANNELS 3 Xrotation Yrotation Zrotation
			JOINT Spine1
			{
				OFFSET 0.000000 5.730043 0.104720
				CHANNELS 3 Xrotation Yrotation Zrotation
				JOINT Spine1_split
				{
					OFFSET 0.000000 5.730043 0.104720
					CHANNELS 3 Xrotation Yrotation Zrotation
					JOINT Spine2
					{
						OFFSET 0.000000 5.730043 0.104720
						CHANNELS 3 Xrotation Yrotation Zrotation
						JOINT Neck_virtual
						{
							OFFSET 0.000000 0.000000 0.000000
							CHANNELS 3 Xrotation Yrotation Zrotation
							JOINT Neck
							{
								OFFSET 0.000000 10.314075 0.188496
								CHANNELS 3 Xrotation Yrotation Zrotation
								JOINT Head
								{
									OFFSET 0.000000 7.643700 -2.377400
									CHANNELS 3 Xrotation Yrotation Zrotation
									JOINT HeadTop_End
									{
										OFFSET 0.000000 43.788605 -13.619600
										CHANNELS 3 Xrotation Yrotation Zrotation
										End Site
										{
											OFFSET 0 0 0
										}
									}
								}
							}
						}
						JOINT LeftShoulder_virtual
						{
							OFFSET 0.000000 0.000000 0.000000
							CHANNELS 3 Xrotation Yrotation Zrotation
							JOINT LeftShoulder
							{
								OFFSET 2.196100 4.412489 0.087492
								CHANNELS 3 Xrotation Yrotation Zrotation
								JOINT LeftShoulder_split
								{
									OFFSET 2.196100 4.412489 0.087492
									CHANNELS 3 Xrotation Yrotation Zrotation
									JOINT LeftArm
									{
										OFFSET 8.771219 -2.981674 -0.026999
										CHANNELS 3 Xrotation Yrotation Zrotation
										JOINT LeftForeArm
										{
											OFFSET 8.512804 0.000000 -0.000000
											CHANNELS 3 Xrotation Yrotation Zrotation
											JOINT LeftHand
											{
												OFFSET 18.484802 0.000000 -0.000000
												CHANNELS 3 Xrotation Yrotation Zrotation
												End Site
												{
													OFFSET 0 0 0
												}
											}
										}
									}
								}
							}
						}
						JOINT RightShoulder_virtual
						{
							OFFSET 0.000000 0.000000 0.000000
							CHANNELS 3 Xrotation Yrotation Zrotation
							JOINT RightShoulder
							{
								OFFSET -2.196100 4.412496 0.070690
								CHANNELS 3 Xrotation Yrotation Zrotation
								JOINT RightShoulder_split
								{
									OFFSET -2.196100 4.412496 0.070690
									CHANNELS 3 Xrotation Yrotation Zrotation
									JOINT RightArm
									{
										OFFSET -8.771282 -2.981682 -0.094208
										CHANNELS 3 Xrotation Yrotation Zrotation
										JOINT RightForeArm
										{
											OFFSET -8.494598 0.000000 0.000000
											CHANNELS 3 Xrotation Yrotation Zrotation
											JOINT RightHand
											{
												OFFSET -18.483803 0.000000 0.000001
												CHANNELS 3 Xrotation Yrotation Zrotation
												End Site
												{
													OFFSET 0 0 0
												}
											}
										}
									}
								}
							}
						}
					}
				}
			}
		}
	}
}
MOTION
Frames: 11
Frame Time: 0.03333333
2.587362 28.009045 -3.591469 0.000000 0.000000 0.000000 0.402647 41.578391 -4.077554 -11.070409 2.541753 16.918418 49.244090 -3.855134 8.044306 -29.381705 24.323176 -25.782999 -5.885711 -9.936648 10.301806 0.000000 0.000000 0.000000 2.385877 41.741485 -5.187645 -39.730169 6.721590 -12.569203 45.620336 17.598952 -14.967618 2.953623 -19.696577 41.856151 -3.507307 7.315783 -15.780112 0.000000 0.000000 0.000000 -1.347606 49.868396 -2.333329 5.048415 -4.461319 -0.497720 3.595779 -1.326707 0.462822 0.157395 -0.304605 -0.102039 0.000000 0.000000 0.000000 2.866513 0.260597 0.176754 -3.454392 4.417237 3.317463 -21.888987 -8.674940 -20.654752 0.000000 0.000000 0.000000 1.695256 -1.214663 -0.416482 4.527740 -12.339325 -3.882455 -0.761963 -0.824251 -0.855828 12.304768 -44.611131 -39.130977 172.399903 -64.942094 175.455785 0.000000 0.000000 0.000000 3.117242 -0.435608 0.418499 1.345472 -4.817014 9.768896 -7.704618 8.704895 7.177811 -25.306437 -10.758309 43.358905 -160.839576 59.150360 165.020294 0.000000 0.000000 0.000000 
2.437049 28.873022 -3.648409 0.000000 0.000000 0.000000 0.443661 40.884075 -4.045810 -11.522583 1.342713 17.670505 49.028816 -4.557138 7.008668 -20.900765 22.432243 -27.533821 -4.497337 -9.671941 9.855503 0.000000 0.000000 0.000000 2.520251 41.354296 -4.822946 -38.392329 5.511156 -13.519078 41.371023 18.794690 -13.605902 5.045440 -15.933590 45.870966 -8.694917 8.315450 -16.221170 0.000000 0.000000 0.000000 -0.878364 47.501995 -2.806875 4.100328 -4.664808 -0.095338 3.081298 -1.391235 0.585857 -0.046536 -0.074502 -0.119122 0.000000 0.000000 0.000000 2.762704 0.183567 0.234870 -3.276956 4.448626 3.311465 -21.783591 -8.741117 -20.969996 0.000000 0.000000 0.000000 1.668124 -1.329362 -0.194928 4.551944 -12.605847 -2.916400 -1.591804 -1.166886 -0.453822 8.591104 -44.783279 -39.324807 172.876118 -64.298158 176.242131 0.000000 0.000000 0.000000 3.027597 -0.530467 0.497763 1.101262 -4.703621 8.540156 -6.747129 8.042667 5.588463 -27.824350 -9.902089 42.946857 -163.088525 56.463774 166.581702 0.000000 0.000000 0.000000 
2.448626 30.594995 -3.872283 0.000000 0.000000 0.000000 0.678792 39.947178 -3.940911 -12.068791 -0.642897 17.160680 47.603441 -4.937043 6.386689 -9.382674 17.097458 -28.248102 -4.911435 -9.373465 6.460946 0.000000 0.000000 0.000000 2.981609 40.097312 -4.462447 -35.183124 4.079619 -13.379727 34.239769 19.171376 -10.962342 5.011208 -12.911951 44.313677 -8.374912 8.393030 -15.557159 0.000000 0.000000 0.000000 0.615117 44.220403 -3.911065 2.737458 -4.826626 0.309572 2.763634 -1.589351 0.785591 -0.117641 0.225927 -0.053155 0.000000 0.000000 0.000000 2.606447 0.027247 0.368750 -2.329888 4.651183 3.296585 -21.898705 -7.690461 -20.454916 0.000000 0.000000 0.000000 1.829924 -1.499176 0.122086 4.576820 -12.464610 -1.865104 -1.331692 -1.375177 -1.390054 3.127141 -44.147341 -40.085363 173.447081 -63.184058 176.963890 0.000000 0.000000 0.000000 3.157537 -0.698301 0.626948 0.849631 -4.232288 6.716836 -5.331461 5.759172 5.322795 -30.250136 -6.649938 41.435875 -165.050032 54.529686 167.481730 0.000000 0.000000 0.000000 
2.631645 32.616852 -4.170540 0.000000 0.000000 0.000000 0.803981 38.208249 -3.523930 -12.764237 -2.448898 15.996001 46.405378 -5.035510 6.472937 2.225391 9.742163 -26.816909 -10.718594 -9.120014 1.986893 0.000000 0.000000 0.000000 2.914375 37.399527 -3.768609 -31.518731 2.433899 -12.498595 27.482557 18.273251 -7.930436 3.784365 -11.431908 38.150705 -3.783837 7.755293 -14.191522 0.000000 0.000000 0.000000 2.111632 40.556850 -4.504724 1.362088 -4.896170 0.538631 2.693807 -1.894092 1.015488 -0.000602 0.457480 0.019009 0.000000 0.000000 0.000000 2.459523 -0.176934 0.541368 -0.872402 4.975923 3.292129 -22.076590 -5.593664 -19.196885 0.000000 0.000000 0.000000 2.107289 -1.698997 0.472923 4.543674 -11.991890 -0.897346 -0.370765 -1.216956 -2.706717 -3.216552 -42.510298 -41.797073 173.956490 -62.046682 177.403768 0.000000 0.000000 0.000000 3.432355 -0.888579 0.808675 0.690574 -3.264164 4.788576 -3.862241 3.617666 6.158097 -31.649679 -1.978389 39.886283 -166.668705 53.813879 167.908193 0.000000 0.000000 0.000000 
2.904991 34.508476 -4.381347 0.000000 0.000000 0.000000 0.655290 35.645774 -2.566754 -12.935555 -3.205657 13.949014 45.590584 -5.451606 7.481471 11.025821 2.804117 -24.360396 -20.758123 -8.233704 -1.898893 0.000000 0.000000 0.000000 2.062151 33.134392 -2.585120 -28.888193 0.855014 -11.871211 24.299131 16.974466 -5.166108 3.052575 -10.568261 31.268644 -0.863370 7.226714 -12.477518 0.000000 0.000000 0.000000 2.792012 37.198911 -3.930119 0.405828 -4.760069 0.466069 2.844868 -2.218427 1.222369 0.102216 0.546909 0.003937 0.000000 0.000000 0.000000 2.352278 -0.396429 0.764622 0.648700 5.349642 3.273182 -22.123283 -2.612134 -17.338715 0.000000 0.000000 0.000000 2.375893 -1.905399 0.789564 4.465216 -11.211955 -0.004766 0.762056 -0.621484 -3.385875 -9.242263 -40.054333 -44.079370 174.317356 -61.481415 177.504937 0.000000 0.000000 0.000000 3.686799 -1.060178 1.019377 0.695104 -1.671383 3.216678 -2.786591 2.577176 6.912388 -31.915398 2.759802 38.970522 -167.885066 54.431915 168.018351 0.000000 0.000000 0.000000 
3.196436 35.940960 -4.402341 0.000000 0.000000 0.000000 0.167329 32.022830 -1.120999 -12.843816 -1.967910 11.069601 45.302025 -4.994888 8.050221 13.596844 -0.357344 -20.693697 -26.873378 -6.453099 -5.305583 0.000000 0.000000 0.000000 0.820394 28.410491 -1.063250 -27.392221 -0.317004 -12.039066 25.743063 16.279776 -3.195385 3.779686 -9.694502 26.448501 -2.487819 7.033538 -10.860534 0.000000 0.000000 0.000000 2.334231 34.405971 -2.265419 0.157823 -4.355487 0.100320 3.110437 -2.434516 1.359851 0.123151 0.479864 -0.086756 0.000000 0.000000 0.000000 2.233050 -0.597468 0.969331 1.806860 5.741656 3.235247 -21.937161 0.943917 -15.117714 0.000000 0.000000 0.000000 2.602694 -2.091564 0.988579 4.401099 -10.297179 0.688919 1.772276 -0.169182 -3.159944 -13.526327 -36.951791 -46.406597 174.661010 -61.747792 177.452085 0.000000 0.000000 0.000000 3.828544 -1.196280 1.216547 0.818213 0.552907 2.318251 -2.394037 2.185265 7.410075 -31.192446 6.280151 39.220182 -168.800544 56.170533 168.082664 0.000000 0.000000 0.000000 
3.405381 36.855061 -4.546013 0.000000 0.000000 0.000000 -0.588328 27.090508 0.666106 -13.319994 0.789713 8.552053 44.781196 -3.290791 7.967376 10.124978 0.803564 -16.974214 -25.170617 -4.758197 -7.091873 0.000000 0.000000 0.000000 -0.103095 24.225182 0.467514 -25.849805 -1.082898 -12.815367 29.829383 16.007254 -1.966109 4.249317 -9.476804 23.592587 -6.433118 6.777939 -9.259195 0.000000 0.000000 0.000000 1.155589 31.454326 -0.163391 0.471818 -3.642011 -0.428624 3.334945 -2.503377 1.402413 0.091632 0.321526 -0.189657 0.000000 0.000000 0.000000 2.102930 -0.736834 1.080375 2.533842 6.152854 3.152180 -21.445773 4.708767 -12.815786 0.000000 0.000000 0.000000 2.719455 -2.202268 1.028316 4.406223 -9.223519 1.202677 2.147766 0.209791 -2.404674 -15.469181 -33.571507 -48.401336 175.214925 -62.991297 177.520291 0.000000 0.000000 0.000000 3.763550 -1.279286 1.284548 0.943588 3.065352 2.097995 -2.430354 2.614505 7.270313 -30.040268 7.757832 40.662107 -169.490939 58.582901 168.220032 0.000000 0.000000 0.000000 
3.517180 37.253624 -4.791594 0.000000 0.000000 0.000000 -1.162312 21.646942 2.294436 -14.918916 3.418809 7.141502 43.411607 -1.420118 7.273312 4.722914 4.367808 -15.133969 -14.054338 -3.688489 -7.802185 0.000000 0.000000 0.000000 -0.312291 20.614985 1.755355 -23.192032 -1.622468 -14.057101 33.881608 15.607059 -1.248668 2.652074 -10.428255 21.332269 -9.976821 6.182924 -7.553730 0.000000 0.000000 0.000000 -0.127308 27.961437 1.596223 0.942321 -2.637555 -0.871460 3.381194 -2.426862 1.296961 0.022854 0.197957 -0.163962 0.000000 0.000000 0.000000 1.950166 -0.776761 1.098778 2.761343 6.567684 2.994561 -20.679772 8.213977 -10.622719 0.000000 0.000000 0.000000 2.628777 -2.216395 0.861647 4.460601 -8.086651 1.451338 1.957598 -0.104547 -1.386712 -14.906642 -30.329889 -49.817101 176.133940 -64.736321 177.889668 0.000000 0.000000 0.000000 3.545204 -1.269059 1.177349 0.940504 5.574417 2.340386 -2.512912 2.896341 6.740418 -28.826110 7.550065 42.889521 -169.855535 60.887421 168.377113 0.000000 0.000000 0.000000 
3.619658 37.151611 -4.852446 0.000000 0.000000 0.000000 -1.187558 16.015971 3.478568 -18.778883 4.849224 8.133842 41.573780 -1.175615 6.018244 2.602694 7.476667 -17.794357 0.552719 -3.075898 -7.514502 0.000000 0.000000 0.000000 -0.009430 16.898981 2.828512 -19.702138 -2.106307 -15.770121 36.511767 14.897022 -0.777215 0.399873 -12.275158 19.820111 -12.498481 5.366372 -5.833962 0.000000 0.000000 0.000000 -1.249458 23.763828 2.799409 1.234788 -1.454347 -1.009212 3.262426 -2.251992 1.056132 0.006110 -0.003007 -0.076254 0.000000 0.000000 0.000000 1.800498 -0.704661 1.000718 2.544163 6.998289 2.791934 -19.790166 10.986286 -8.620111 0.000000 0.000000 0.000000 2.324653 -2.109483 0.501420 4.471699 -7.129970 1.258320 1.186833 -1.248055 -0.549361 -12.731074 -27.036494 -50.768031 177.735975 -66.224654 178.909060 0.000000 0.000000 0.000000 3.296603 -1.160815 0.911646 0.741754 7.658007 2.867294 -2.836916 2.291377 6.179146 -27.746511 6.548799 45.299693 -169.847339 62.606538 168.584915 0.000000 0.000000 0.000000 
3.614476 36.588017 -4.949285 0.000000 0.000000 0.000000 -0.707704 10.487132 4.108495 -23.441237 4.473527 10.781246 38.828212 -3.035859 5.190998 4.451137 7.840509 -23.626809 8.300141 -2.488228 -5.134611 0.000000 0.000000 0.000000 0.399720 12.941760 3.562849 -16.288680 -2.878169 -17.923916 37.532975 14.373464 -0.036804 -0.153899 -14.532995 20.403718 -14.201552 4.576103 -4.495119 0.000000 0.000000 0.000000 -1.732093 19.040271 3.157334 1.171514 -0.136450 -0.675972 3.138768 -2.021114 0.766476 0.008846 -0.217306 0.008401 0.000000 0.000000 0.000000 1.764357 -0.512352 0.822059 2.098261 7.431656 2.563348 -18.823545 12.868588 -6.843105 0.000000 0.000000 0.000000 1.901171 -1.873349 0.072269 4.411108 -6.463323 0.707554 0.317719 -2.530148 -0.136363 -10.252715 -23.597298 -51.102738 -179.989514 -67.168838 -179.476198 0.000000 0.000000 0.000000 3.110186 -0.957034 0.554863 0.388292 8.974453 3.483777 -3.120068 1.344013 5.628865 -26.974676 6.118515 47.199425 -169.343025 63.645028 168.715617 0.000000 0.000000 0.000000 
3.537963 35.505310 -5.117110 0.000000 0.000000 0.000000 0.056380 5.921032 4.013341 -26.877604 2.507093 13.480543 36.000827 -5.582660 4.988110 6.175573 6.220860 -28.160149 8.546435 -2.163444 -2.294970 0.000000 0.000000 0.000000 0.805535 8.799100 3.754044 -14.144188 -3.703370 -19.877406 37.528905 14.574135 0.589952 0.503956 -16.536651 24.082050 -16.756930 4.184666 -4.222998 0.000000 0.000000 0.000000 -1.564144 14.138685 2.857251 0.752139 1.146340 0.143246 3.160729 -1.778644 0.547811 -0.019159 -0.334428 0.121324 0.000000 0.000000 0.000000 1.952801 -0.240046 0.628977 1.360871 7.838667 2.314039 -18.042810 14.047120 -5.337716 0.000000 0.000000 0.000000 1.586552 -1.549923 -0.270521 4.266439 -6.338935 -0.168178 -0.518529 -3.402587 0.078766 -8.281026 -19.940198 -50.836927 -177.483709 -67.417478 -177.674927 0.000000 0.000000 0.000000 3.155952 -0.673846 0.288803 -0.071780 9.443748 4.235894 -3.473110 0.219988 5.144055 -26.672223 7.271328 48.274305 -168.262967 64.210998 168.635950 0.000000 0.000000 0.000000 
